<svg id="svg" xmlns="http://www.w3.org/2000/svg" xmlns:xlink="http://www.w3.org/1999/xlink" width="150" height="150" class="relative" viewBox="0, 0, 400,400" version="1.1">
                            <g id="svgg">
                                <path id="path0" d="M78.000 79.000 L 78.000 158.000 39.000 158.000 L 0.000 158.000 0.000 240.004 L 0.000 322.007 40.992 321.996 L 81.985 321.985 81.996 282.122 C 82.002 260.198,82.064 242.203,82.133 242.133 C 82.203 242.064,100.208 242.002,122.145 241.996 C 153.492 241.987,162.018 241.880,161.968 241.492 C 161.934 241.222,161.927 205.225,161.953 161.500 L 162.000 82.000 200.000 82.000 L 238.000 82.000 238.052 160.700 C 238.081 203.985,238.104 239.982,238.103 240.693 L 238.102 241.985 277.921 241.996 C 299.822 242.002,317.795 242.062,317.862 242.128 C 317.928 242.195,317.995 260.190,318.009 282.117 L 318.036 321.985 359.018 321.996 L 400.000 322.007 400.000 240.004 L 400.000 158.000 361.000 158.000 L 322.000 158.000 322.000 79.000 L 322.000 0.000 200.000 0.000 L 78.000 0.000 78.000 79.000 M158.009 359.009 L 157.983 400.000 199.995 400.000 L 242.007 400.000 241.996 359.009 L 241.985 318.018 200.010 318.018 L 158.035 318.018 158.009 359.009 " stroke="none" class="white" fill-rule="evenodd"></path>
                                <path id="path1" d="" stroke="none" fill-rule="evenodd"></path>
                                <path id="path2" d="" stroke="none" fill-rule="evenodd"></path>
                                <path id="path3" d="" stroke="none" fill-rule="evenodd"></path>
                                <path id="path4" d="" stroke="none" fill-rule="evenodd"></path>
                            </g>
                        </svg>